# xmcd CD database file
#
# Track frame offsets:
#	150
#	35757
#	57530
#	78755
#	105410
#	121030
#	147610
#	179667
#	212570
#	239710
#
# Disc length: 3522 seconds
#
# Revision: 0
# Processed by: cddbd v1.5.1PL0 Copyright (c) Steve Scherf et al.
# Submitted via: CDex 1.51
#
DISCID=910dc00a
DTITLE=Enrico Pieranunzi - Meridies
DYEAR=1988
DGENRE=Jazz
TTITLE0=Filigrane
TTITLE1=Altrove
TTITLE2=Some Other Time
TTITLE3=Tenderly
TTITLE4=What Is This Thing Called Love
TTITLE5=Meridies
TTITLE6=Blues Per Enzo
TTITLE7=I Should Care
TTITLE8=Echi
TTITLE9=Tenderly Instr.
EXTD=YEAR: 1988
EXTT0=
EXTT1=
EXTT2=
EXTT3=
EXTT4=
EXTT5=
EXTT6=
EXTT7=
EXTT8=
EXTT9=
PLAYORDER=
